<svg width="180" height="46" viewBox="0 0 180 46" fill="none" xmlns="http://www.w3.org/2000/svg">
<path d="M41.796 36.4805V20.2948H46.0572V25.2496H45.4956C45.5397 23.9283 45.7709 22.9043 46.1893 22.1776C46.6297 21.4289 47.2133 20.9114 47.94 20.6251C48.6667 20.3168 49.4705 20.1626 50.3513 20.1626H51.6065V24.4898H49.9549C48.7438 24.4898 47.8079 24.7541 47.1472 25.2826C46.5086 25.8111 46.1893 26.5709 46.1893 27.5618V36.4805H41.796ZM57.6829 36.4805V22.0455L59.6648 23.9944H54.8752V20.2948H62.0762V36.4805H57.6829ZM57.4847 17.2228V12.5983H62.3074V17.2228H57.4847ZM75.4469 36.8108C73.8173 36.8108 72.3859 36.4695 71.1527 35.7868C69.9195 35.0821 68.9506 34.1132 68.2459 32.88C67.5412 31.6248 67.1889 30.1603 67.1889 28.4867V28.1564C67.1889 26.6149 67.5082 25.2276 68.1468 23.9944C68.8075 22.7612 69.7214 21.7812 70.8885 21.0545C72.0776 20.3278 73.443 19.9645 74.9845 19.9645C76.6581 19.9645 78.0785 20.3718 79.2456 21.1866C80.4127 21.9794 81.2605 23.1135 81.7891 24.5889C82.3396 26.0423 82.4827 27.76 82.2185 29.7419H70.36V26.8021H79.9393L77.9573 28.2885C78.1335 27.2315 78.1115 26.3506 77.8913 25.646C77.6711 24.9193 77.3077 24.3687 76.8012 23.9944C76.3167 23.598 75.7222 23.3998 75.0175 23.3998C74.2247 23.3998 73.5641 23.609 73.0356 24.0274C72.5291 24.4458 72.1437 25.0184 71.8794 25.7451C71.6372 26.4497 71.5161 27.2535 71.5161 28.1564V28.9822C71.5161 29.797 71.6702 30.5127 71.9785 31.1293C72.3089 31.7459 72.7823 32.2303 73.3989 32.5827C74.0155 32.935 74.7642 33.1112 75.6451 33.1112C76.4599 33.1112 77.1315 32.9901 77.6601 32.7478C78.1886 32.5056 78.662 32.1643 79.0804 31.7239L81.5578 34.3004C80.8972 35.1372 80.0384 35.7648 78.9813 36.1832C77.9463 36.6016 76.7682 36.8108 75.4469 36.8108ZM87.419 36.4805V20.2948H91.6471V24.7871H90.4909C90.7111 23.7741 91.0415 22.9594 91.4819 22.3428C91.9223 21.7041 92.4288 21.2197 93.0014 20.8893C93.5739 20.537 94.1465 20.2948 94.719 20.1626C95.3136 20.0305 95.8421 19.9645 96.3046 19.9645C98.1323 19.9645 99.5858 20.57 100.665 21.7812C101.766 22.9704 102.316 24.644 102.316 26.8021V36.4805H97.9231V27.4958C97.9231 26.2405 97.6589 25.3377 97.1304 24.7871C96.6239 24.2366 95.9302 23.9613 95.0494 23.9613C94.4328 23.9613 93.8822 24.1045 93.3978 24.3907C92.9133 24.655 92.5279 25.0624 92.2416 25.6129C91.9554 26.1414 91.8122 26.8131 91.8122 27.6279V36.4805H87.419ZM114.553 36.4805C113.937 36.4805 113.32 36.4144 112.703 36.2823C112.087 36.1501 111.514 35.8969 110.986 35.5225C110.479 35.1482 110.061 34.6417 109.731 34.0031C109.422 33.3644 109.268 32.5276 109.268 31.4926V16.364H113.661V31.856C113.661 32.1202 113.749 32.3405 113.926 32.5166C114.124 32.6928 114.344 32.7809 114.586 32.7809H117.196V36.4805H114.553ZM106.659 23.9944V20.2948H117.196V23.9944H106.659ZM131.895 36.4805V31.3935L131.367 29.7419V26.3066C131.367 25.4037 131.091 24.7541 130.541 24.3577C130.012 23.9613 129.319 23.7631 128.46 23.7631C127.711 23.7631 126.896 23.9173 126.015 24.2256C125.157 24.5339 124.408 24.9523 123.769 25.4808L121.82 22.574C122.547 21.8032 123.538 21.1756 124.793 20.6912C126.048 20.2067 127.37 19.9645 128.757 19.9645C130.122 19.9645 131.322 20.2067 132.357 20.6912C133.392 21.1536 134.207 21.8363 134.802 22.7391C135.396 23.642 135.694 24.7541 135.694 26.0754V31.3275C135.694 32.1863 135.694 33.0451 135.694 33.904C135.716 34.7628 135.749 35.6216 135.793 36.4805H131.895ZM127.37 36.8108C125.542 36.8108 124.077 36.3704 122.976 35.4895C121.897 34.5866 121.358 33.4305 121.358 32.0211C121.358 31.0522 121.611 30.1934 122.118 29.4446C122.646 28.6959 123.406 28.1124 124.397 27.6939C125.388 27.2535 126.588 27.0333 127.997 27.0333C129.957 27.0333 131.422 27.4627 132.391 28.3216C133.359 29.1584 133.844 30.2815 133.844 31.6908H132.622C132.622 33.3204 132.192 34.5866 131.333 35.4895C130.475 36.3704 129.153 36.8108 127.37 36.8108ZM128.559 33.6397C129.396 33.6397 130.078 33.4746 130.607 33.1442C131.135 32.7919 131.4 32.3405 131.4 31.7899C131.4 31.2394 131.135 30.799 130.607 30.4686C130.1 30.1383 129.418 29.9732 128.559 29.9732C127.722 29.9732 127.039 30.1383 126.511 30.4686C126.004 30.799 125.751 31.2394 125.751 31.7899C125.751 32.3405 126.004 32.7919 126.511 33.1442C127.039 33.4746 127.722 33.6397 128.559 33.6397ZM142.778 36.4805V13.358H149.351C150.805 13.358 152.071 13.6223 153.15 14.1508C154.251 14.6573 155.11 15.406 155.726 16.397C156.365 17.388 156.684 18.5991 156.684 20.0305C156.684 21.4179 156.365 22.618 155.726 23.631C155.11 24.622 154.251 25.3817 153.15 25.9102C152.071 26.4167 150.805 26.67 149.351 26.67H143.505V25.2826H149.417C151.069 25.2826 152.423 24.8202 153.48 23.8953C154.559 22.9483 155.099 21.6601 155.099 20.0305C155.099 18.3789 154.559 17.0907 153.48 16.1658C152.423 15.2409 151.069 14.7784 149.417 14.7784H143.67L144.33 14.1178V36.4805H142.778ZM158.665 36.4805L167.782 13.358H169.599L178.716 36.4805H177.064L168.542 14.6463H168.872L160.284 36.4805H158.665ZM162.2 29.5437L162.761 28.1234H174.62L175.214 29.5437H162.2Z" fill="#0166CC"/>
<path fill-rule="evenodd" clip-rule="evenodd" d="M21.4863 8.15506C20.1664 7.83415 18.7874 7.66406 17.3687 7.66406C7.77624 7.66406 0 15.4403 0 25.0328C0 34.6253 7.77624 42.4015 17.3687 42.4015C26.9612 42.4015 34.7374 34.6253 34.7374 25.0328C34.7374 22.9038 34.3544 20.8642 33.6534 18.9793H23.2151C24.7993 20.5097 25.7845 22.6562 25.7845 25.0329C25.7845 29.6808 22.0166 33.4487 17.3687 33.4487C12.7208 33.4487 8.95296 29.6808 8.95296 25.0329C8.95296 20.385 12.7208 16.6171 17.3687 16.6171C18.8645 16.6171 20.2691 17.0073 21.4863 17.6915V8.15506Z" fill="url(#paint0_linear_14873_23185)"/>
<path d="M33.5027 5.42597C34.1903 5.42968 34.7518 5.99109 34.7555 6.67877V16.9568L30.6299 16.96L30.6299 9.50497L23.2252 9.50542L23.2249 5.363L33.5026 5.42047L33.5027 5.42597Z" fill="#E0C104"/>
<defs>
<linearGradient id="paint0_linear_14873_23185" x1="17.3687" y1="7.66406" x2="17.3687" y2="42.4015" gradientUnits="userSpaceOnUse">
<stop stop-color="#2F63DC"/>
<stop offset="1" stop-color="#A1108B"/>
</linearGradient>
</defs>
</svg>
