<svg width="39" height="35" viewBox="0 0 39 35" fill="none" xmlns="http://www.w3.org/2000/svg">
<g opacity="0.7" clip-path="url(#clip0_4803_8860)">
<path d="M36.6631 12.0479V14.582H2.33984V12.0479H36.6631Z" fill="url(#paint0_linear_4803_8860)"/>
<path d="M36.6631 12.0479V14.582H2.33984V12.0479H36.6631Z" stroke="#4B80FC"/>
<path d="M19.2281 0.200195L38.7005 11.1234H0.300781L19.2281 0.200195Z" fill="#3162DB"/>
<path d="M19.2359 9.70575C21.173 9.70575 22.7433 8.17445 22.7433 6.28549C22.7433 4.39653 21.173 2.86523 19.2359 2.86523C17.2988 2.86523 15.7285 4.39653 15.7285 6.28549C15.7285 8.17445 17.2988 9.70575 19.2359 9.70575Z" fill="#3162DB"/>
<path d="M37.5 11.6089V12.4868H1.49414V11.6089H37.5Z" fill="#3162DB"/>
<path d="M37.5 11.6089V12.4868H1.49414V11.6089H37.5Z" stroke="#4B80FC"/>
<path d="M37.5 14.1436V15.0215H1.49414V14.1436H37.5Z" fill="#3162DB"/>
<path d="M37.5 14.1436V15.0215H1.49414V14.1436H37.5Z" stroke="#4B80FC"/>
<path d="M10.5625 15.9307H4.91504L4.51172 15.0137H10.9658L10.5625 15.9307Z" fill="url(#paint1_linear_4803_8860)"/>
<path d="M10.5625 15.9307H4.91504L4.51172 15.0137H10.9658L10.5625 15.9307Z" stroke="#4B80FC"/>
<path d="M10.1279 15.9302V16.6001H5.41211V15.9302H10.1279Z" fill="#3162DB"/>
<path d="M10.1279 15.9302V16.6001H5.41211V15.9302H10.1279Z" stroke="#4B80FC"/>
<path d="M9.64551 16.6006V30.043H5.83789V16.6006H9.64551Z" fill="url(#paint2_linear_4803_8860)"/>
<path d="M9.64551 16.6006V30.043H5.83789V16.6006H9.64551Z" stroke="#4B80FC"/>
<path d="M6.95215 17.4326C7.10217 17.4326 7.2206 17.5481 7.2207 17.6943V28.9336C7.2207 29.08 7.10224 29.1953 6.95215 29.1953C6.80207 29.1953 6.68359 29.0799 6.68359 28.9336V17.6943C6.6837 17.5481 6.80214 17.4326 6.95215 17.4326Z" fill="#3162DB"/>
<path d="M6.95215 17.4326C7.10217 17.4326 7.2206 17.5481 7.2207 17.6943V28.9336C7.2207 29.08 7.10224 29.1953 6.95215 29.1953C6.80207 29.1953 6.68359 29.0799 6.68359 28.9336V17.6943C6.6837 17.5481 6.80214 17.4326 6.95215 17.4326Z" stroke="#4B80FC"/>
<path d="M8.50879 17.4326C8.65881 17.4326 8.77724 17.5481 8.77734 17.6943V28.9336C8.77734 29.08 8.65888 29.1953 8.50879 29.1953C8.35871 29.1953 8.24023 29.0799 8.24023 28.9336V17.6943C8.24034 17.5481 8.35878 17.4326 8.50879 17.4326Z" fill="#3162DB"/>
<path d="M8.50879 17.4326C8.65881 17.4326 8.77724 17.5481 8.77734 17.6943V28.9336C8.77734 29.08 8.65888 29.1953 8.50879 29.1953C8.35871 29.1953 8.24023 29.0799 8.24023 28.9336V17.6943C8.24034 17.5481 8.35878 17.4326 8.50879 17.4326Z" stroke="#4B80FC"/>
<path d="M10.9658 31.5991H4.51172L4.91504 30.6821H10.5625L10.9658 31.5991Z" fill="url(#paint3_linear_4803_8860)"/>
<path d="M10.9658 31.5991H4.51172L4.91504 30.6821H10.5625L10.9658 31.5991Z" stroke="#4B80FC"/>
<path d="M5.35254 30.6782V30.0083H10.0684V30.6782H5.35254Z" fill="#3162DB"/>
<path d="M5.35254 30.6782V30.0083H10.0684V30.6782H5.35254Z" stroke="#4B80FC"/>
<path d="M34.1113 15.9307H28.4551L28.0605 15.0137H34.5068L34.1113 15.9307Z" fill="url(#paint4_linear_4803_8860)"/>
<path d="M34.1113 15.9307H28.4551L28.0605 15.0137H34.5068L34.1113 15.9307Z" stroke="#4B80FC"/>
<path d="M33.6689 15.9302V16.6001H28.9531V15.9302H33.6689Z" fill="#3162DB"/>
<path d="M33.6689 15.9302V16.6001H28.9531V15.9302H33.6689Z" stroke="#4B80FC"/>
<path d="M33.1865 16.6006V30.043H29.3789V16.6006H33.1865Z" fill="url(#paint5_linear_4803_8860)"/>
<path d="M33.1865 16.6006V30.043H29.3789V16.6006H33.1865Z" stroke="#4B80FC"/>
<path d="M30.4932 17.4326C30.6432 17.4326 30.7616 17.5481 30.7617 17.6943V28.9336C30.7617 29.08 30.6433 29.1953 30.4932 29.1953C30.3431 29.1953 30.2246 29.0799 30.2246 28.9336V17.6943C30.2247 17.5481 30.3432 17.4326 30.4932 17.4326Z" fill="#3162DB"/>
<path d="M30.4932 17.4326C30.6432 17.4326 30.7616 17.5481 30.7617 17.6943V28.9336C30.7617 29.08 30.6433 29.1953 30.4932 29.1953C30.3431 29.1953 30.2246 29.0799 30.2246 28.9336V17.6943C30.2247 17.5481 30.3432 17.4326 30.4932 17.4326Z" stroke="#4B80FC"/>
<path d="M32.0576 17.4326C32.2076 17.4326 32.3261 17.5481 32.3262 17.6943V28.9336C32.3183 29.08 32.1998 29.1953 32.0576 29.1953C31.9075 29.1953 31.7891 29.0799 31.7891 28.9336V17.6943C31.7892 17.5481 31.9076 17.4326 32.0576 17.4326Z" fill="#3162DB"/>
<path d="M32.0576 17.4326C32.2076 17.4326 32.3261 17.5481 32.3262 17.6943V28.9336C32.3183 29.08 32.1998 29.1953 32.0576 29.1953C31.9075 29.1953 31.7891 29.0799 31.7891 28.9336V17.6943C31.7892 17.5481 31.9076 17.4326 32.0576 17.4326Z" stroke="#4B80FC"/>
<path d="M34.5068 31.5991H28.0605L28.4551 30.6821H34.1113L34.5068 31.5991Z" fill="url(#paint6_linear_4803_8860)"/>
<path d="M34.5068 31.5991H28.0605L28.4551 30.6821H34.1113L34.5068 31.5991Z" stroke="#4B80FC"/>
<path d="M28.8975 30.6782V30.0083H33.6133V30.6782H28.8975Z" fill="#3162DB"/>
<path d="M28.8975 30.6782V30.0083H33.6133V30.6782H28.8975Z" stroke="#4B80FC"/>
<path d="M26.0449 15.9307H20.3975L19.9941 15.0137H26.4482L26.0449 15.9307Z" fill="url(#paint7_linear_4803_8860)"/>
<path d="M26.0449 15.9307H20.3975L19.9941 15.0137H26.4482L26.0449 15.9307Z" stroke="#4B80FC"/>
<path d="M25.6104 15.9302V16.6001H20.8945V15.9302H25.6104Z" fill="#3162DB"/>
<path d="M25.6104 15.9302V16.6001H20.8945V15.9302H25.6104Z" stroke="#4B80FC"/>
<path d="M25.1299 16.6006V30.043H21.3223V16.6006H25.1299Z" fill="url(#paint8_linear_4803_8860)"/>
<path d="M25.1299 16.6006V30.043H21.3223V16.6006H25.1299Z" stroke="#4B80FC"/>
<path d="M22.4346 17.4326C22.5846 17.4326 22.703 17.5481 22.7031 17.6943V28.9336C22.7031 29.08 22.5847 29.1953 22.4346 29.1953C22.2845 29.1953 22.166 29.0799 22.166 28.9336V17.6943C22.1661 17.5481 22.2846 17.4326 22.4346 17.4326Z" fill="#3162DB"/>
<path d="M22.4346 17.4326C22.5846 17.4326 22.703 17.5481 22.7031 17.6943V28.9336C22.7031 29.08 22.5847 29.1953 22.4346 29.1953C22.2845 29.1953 22.166 29.0799 22.166 28.9336V17.6943C22.1661 17.5481 22.2846 17.4326 22.4346 17.4326Z" stroke="#4B80FC"/>
<path d="M23.9912 17.4326C24.1412 17.4326 24.2597 17.5481 24.2598 17.6943V28.9336C24.2598 29.08 24.1413 29.1953 23.9912 29.1953C23.8411 29.1953 23.7227 29.0799 23.7227 28.9336V17.6943C23.7228 17.5481 23.8412 17.4326 23.9912 17.4326Z" fill="#3162DB"/>
<path d="M23.9912 17.4326C24.1412 17.4326 24.2597 17.5481 24.2598 17.6943V28.9336C24.2598 29.08 24.1413 29.1953 23.9912 29.1953C23.8411 29.1953 23.7227 29.0799 23.7227 28.9336V17.6943C23.7228 17.5481 23.8412 17.4326 23.9912 17.4326Z" stroke="#4B80FC"/>
<path d="M26.4482 31.5991H19.9941L20.3975 30.6821H26.0449L26.4482 31.5991Z" fill="url(#paint9_linear_4803_8860)"/>
<path d="M26.4482 31.5991H19.9941L20.3975 30.6821H26.0449L26.4482 31.5991Z" stroke="#4B80FC"/>
<path d="M20.835 30.6782V30.0083H25.5508V30.6782H20.835Z" fill="#3162DB"/>
<path d="M20.835 30.6782V30.0083H25.5508V30.6782H20.835Z" stroke="#4B80FC"/>
<path d="M18.3672 15.9307H12.7109L12.3164 15.0137H18.7627L18.3672 15.9307Z" fill="url(#paint10_linear_4803_8860)"/>
<path d="M18.3672 15.9307H12.7109L12.3164 15.0137H18.7627L18.3672 15.9307Z" stroke="#4B80FC"/>
<path d="M17.9248 15.9302V16.6001H13.209V15.9302H17.9248Z" fill="#3162DB"/>
<path d="M17.9248 15.9302V16.6001H13.209V15.9302H17.9248Z" stroke="#4B80FC"/>
<path d="M17.4424 16.6006V30.043H13.6348V16.6006H17.4424Z" fill="url(#paint11_linear_4803_8860)"/>
<path d="M17.4424 16.6006V30.043H13.6348V16.6006H17.4424Z" stroke="#4B80FC"/>
<path d="M14.7568 17.4326C14.9069 17.4326 15.0253 17.5481 15.0254 17.6943V28.9336C15.0175 29.08 14.899 29.1953 14.7568 29.1953C14.6068 29.1953 14.4883 29.0799 14.4883 28.9336V17.6943C14.4884 17.5481 14.6068 17.4326 14.7568 17.4326Z" fill="#3162DB"/>
<path d="M14.7568 17.4326C14.9069 17.4326 15.0253 17.5481 15.0254 17.6943V28.9336C15.0175 29.08 14.899 29.1953 14.7568 29.1953C14.6068 29.1953 14.4883 29.0799 14.4883 28.9336V17.6943C14.4884 17.5481 14.6068 17.4326 14.7568 17.4326Z" stroke="#4B80FC"/>
<path d="M16.3135 17.4326C16.4635 17.4326 16.5819 17.5481 16.582 17.6943V28.9336C16.582 29.08 16.4636 29.1953 16.3135 29.1953C16.1634 29.1953 16.0449 29.0799 16.0449 28.9336V17.6943C16.045 17.5481 16.1635 17.4326 16.3135 17.4326Z" fill="#3162DB"/>
<path d="M16.3135 17.4326C16.4635 17.4326 16.5819 17.5481 16.582 17.6943V28.9336C16.582 29.08 16.4636 29.1953 16.3135 29.1953C16.1634 29.1953 16.0449 29.0799 16.0449 28.9336V17.6943C16.045 17.5481 16.1635 17.4326 16.3135 17.4326Z" stroke="#4B80FC"/>
<path d="M18.7627 31.5991H12.3164L12.7109 30.6821H18.3672L18.7627 31.5991Z" fill="url(#paint12_linear_4803_8860)"/>
<path d="M18.7627 31.5991H12.3164L12.7109 30.6821H18.3672L18.7627 31.5991Z" stroke="#4B80FC"/>
<path d="M13.1592 30.6782V30.0083H17.875V30.6782H13.1592Z" fill="#3162DB"/>
<path d="M13.1592 30.6782V30.0083H17.875V30.6782H13.1592Z" stroke="#4B80FC"/>
<path d="M36.6631 32.0073V34.5415H2.33984V32.0073H36.6631Z" fill="url(#paint13_linear_4803_8860)"/>
<path d="M36.6631 32.0073V34.5415H2.33984V32.0073H36.6631Z" stroke="#4B80FC"/>
<path d="M37.5 31.5679V32.4458H1.49414V31.5679H37.5Z" fill="#3162DB"/>
<path d="M37.5 31.5679V32.4458H1.49414V31.5679H37.5Z" stroke="#4B80FC"/>
<path d="M37.5 34.0942V34.9722H1.49414V34.0942H37.5Z" fill="#3162DB"/>
<path d="M37.5 34.0942V34.9722H1.49414V34.0942H37.5Z" stroke="#4B80FC"/>
</g>
<defs>
<linearGradient id="paint0_linear_4803_8860" x1="19.5016" y1="12.0479" x2="19.5016" y2="14.5822" gradientUnits="userSpaceOnUse">
<stop stop-color="#B5C2E8"/>
<stop offset="1" stop-color="#97A8DB"/>
</linearGradient>
<linearGradient id="paint1_linear_4803_8860" x1="7.73868" y1="15.0137" x2="7.73868" y2="15.9304" gradientUnits="userSpaceOnUse">
<stop stop-color="#B5C2E8"/>
<stop offset="1" stop-color="#97A8DB"/>
</linearGradient>
<linearGradient id="paint2_linear_4803_8860" x1="7.74168" y1="16.6006" x2="7.74168" y2="30.0428" gradientUnits="userSpaceOnUse">
<stop stop-color="#B5C2E8"/>
<stop offset="1" stop-color="#97A8DB"/>
</linearGradient>
<linearGradient id="paint3_linear_4803_8860" x1="7.73868" y1="30.6821" x2="7.73868" y2="31.5988" gradientUnits="userSpaceOnUse">
<stop stop-color="#B5C2E8"/>
<stop offset="1" stop-color="#97A8DB"/>
</linearGradient>
<linearGradient id="paint4_linear_4803_8860" x1="31.2836" y1="15.0137" x2="31.2836" y2="15.9304" gradientUnits="userSpaceOnUse">
<stop stop-color="#B5C2E8"/>
<stop offset="1" stop-color="#97A8DB"/>
</linearGradient>
<linearGradient id="paint5_linear_4803_8860" x1="31.2827" y1="16.6006" x2="31.2827" y2="30.0428" gradientUnits="userSpaceOnUse">
<stop stop-color="#B5C2E8"/>
<stop offset="1" stop-color="#97A8DB"/>
</linearGradient>
<linearGradient id="paint6_linear_4803_8860" x1="31.2836" y1="30.6821" x2="31.2836" y2="31.5988" gradientUnits="userSpaceOnUse">
<stop stop-color="#B5C2E8"/>
<stop offset="1" stop-color="#97A8DB"/>
</linearGradient>
<linearGradient id="paint7_linear_4803_8860" x1="23.2211" y1="15.0137" x2="23.2211" y2="15.9304" gradientUnits="userSpaceOnUse">
<stop stop-color="#B5C2E8"/>
<stop offset="1" stop-color="#97A8DB"/>
</linearGradient>
<linearGradient id="paint8_linear_4803_8860" x1="23.2261" y1="16.6006" x2="23.2261" y2="30.0428" gradientUnits="userSpaceOnUse">
<stop stop-color="#B5C2E8"/>
<stop offset="1" stop-color="#97A8DB"/>
</linearGradient>
<linearGradient id="paint9_linear_4803_8860" x1="23.2211" y1="30.6821" x2="23.2211" y2="31.5988" gradientUnits="userSpaceOnUse">
<stop stop-color="#B5C2E8"/>
<stop offset="1" stop-color="#97A8DB"/>
</linearGradient>
<linearGradient id="paint10_linear_4803_8860" x1="15.5394" y1="15.0137" x2="15.5394" y2="15.9304" gradientUnits="userSpaceOnUse">
<stop stop-color="#B5C2E8"/>
<stop offset="1" stop-color="#97A8DB"/>
</linearGradient>
<linearGradient id="paint11_linear_4803_8860" x1="15.5386" y1="16.6006" x2="15.5386" y2="30.0428" gradientUnits="userSpaceOnUse">
<stop stop-color="#B5C2E8"/>
<stop offset="1" stop-color="#97A8DB"/>
</linearGradient>
<linearGradient id="paint12_linear_4803_8860" x1="15.5394" y1="30.6821" x2="15.5394" y2="31.5988" gradientUnits="userSpaceOnUse">
<stop stop-color="#B5C2E8"/>
<stop offset="1" stop-color="#97A8DB"/>
</linearGradient>
<linearGradient id="paint13_linear_4803_8860" x1="19.5016" y1="32.0073" x2="19.5016" y2="34.5417" gradientUnits="userSpaceOnUse">
<stop stop-color="#B5C2E8"/>
<stop offset="1" stop-color="#97A8DB"/>
</linearGradient>
<clipPath id="clip0_4803_8860">
<rect width="39" height="35" fill="white"/>
</clipPath>
</defs>
</svg>
