<svg width="25" height="36" viewBox="0 0 25 36" fill="none" xmlns="http://www.w3.org/2000/svg">
<path d="M15.4726 0.345004C10.1231 -1.01593 4.10596 1.76973 1.36366 6.58348C0.67477 7.79025 0.168704 9.11928 0.0362256 10.5015C-0.191637 12.8858 0.690668 15.2302 1.69485 17.4045C2.9269 20.0785 4.36031 22.6515 5.79373 25.2218C7.06022 27.4918 8.32406 29.7618 9.59055 32.0318C10.6954 34.0147 11.5247 37.3479 13.2575 34.3895C15.9204 29.8495 18.4268 25.2085 21.0102 20.6207C22.3959 18.1594 23.8108 15.6156 24.1658 12.8087C24.86 7.30382 20.8221 1.70327 15.4726 0.345004ZM12.3117 18.7707C8.47244 18.7043 5.41749 15.5199 5.48373 11.663C5.54997 7.80354 8.7162 4.73081 12.5554 4.79726C16.392 4.86371 19.4496 8.04542 19.3833 11.9049C19.3145 15.7644 16.1482 18.8372 12.3117 18.7707Z" fill="url(#paint0_linear_4803_8910)"/>
<defs>
<linearGradient id="paint0_linear_4803_8910" x1="1.95359" y1="29.6581" x2="18.3891" y2="1.69042" gradientUnits="userSpaceOnUse">
<stop offset="0.1837" stop-color="#957DF3"/>
<stop offset="0.4317" stop-color="#907CF0"/>
<stop offset="0.715" stop-color="#8277E8"/>
<stop offset="1" stop-color="#6D71DC"/>
</linearGradient>
</defs>
</svg>
